<?xml version="1.0" encoding="UTF-8"?>
<!DOCTYPE svg PUBLIC "-//W3C//DTD SVG 1.1//EN" "http://www.w3.org/Graphics/SVG/1.1/DTD/svg11.dtd">
<!-- Creator: CorelDRAW 2019 (64-Bit Evaluation Version) -->
<svg xmlns="http://www.w3.org/2000/svg" xml:space="preserve" width="80.4211mm" height="80.3894mm" version="1.1" style="shape-rendering:geometricPrecision; text-rendering:geometricPrecision; image-rendering:optimizeQuality; fill-rule:evenodd; clip-rule:evenodd"
viewBox="0 0 359348.45 359206.8"
 xmlns:xlink="http://www.w3.org/1999/xlink"
 xmlns:xodm="http://www.corel.com/coreldraw/odm/2003">
 <defs>
  <style type="text/css">
   <![CDATA[
    .fil0 {fill:url(#id0)}
   ]]>
  </style>
  <linearGradient id="id0" gradientUnits="userSpaceOnUse" x1="175238.73" y1="86805.46" x2="176699.88" y2="348745.53">
   <stop offset="0" style="stop-opacity:1; stop-color:#393185"/>
   <stop offset="1" style="stop-opacity:1; stop-color:#00A0E3"/>
  </linearGradient>
 </defs>
 <g id="Layer_x0020_1">
  <metadata id="CorelCorpID_0Corel-Layer"/>
  <path class="fil0" d="M-0 177383.08c0,31892.3 14720.04,57204.97 41154.26,72424.57 2066.61,1190.36 4063.95,2374.03 6548.79,3406.21 6687.76,2777.07 15777.69,6073.81 23322.92,6542.98 16539.99,1026.82 9630.16,4005.42 16040.88,-11144.03 3334.72,-7881.25 5936.63,-12400.97 9768.67,-19643.7 -3017.02,251.12 -8108.69,3167.6 -14932.73,3167.6 -15486.36,0 -28985.2,-6992.94 -36766.36,-14819.23 -11517.13,-11585.5 -16176.27,-23176.81 -16176.27,-39934.41 0,-13299.55 7250.32,-26454.78 15950.62,-35182.78 9528.28,-9558.66 29369.03,-18425.63 44537.24,-13993.49 2042.48,597.42 5666.3,2076.88 7387.5,2115.31 -3847.24,-7270.43 -8304.85,-15067.67 -11035,-22902.9 -974.54,-2796.28 -1867.32,-6427.25 -2992.44,-8772.68 -13707.96,0 -23862.7,2849.9 -33555.41,6717.7 -27877.94,11124.37 -49252.67,41705.21 -49252.67,72018.84zm262452.15 -47060.95c3469.22,-77.3 6554.15,-3167.6 15837.57,-3167.6 15231.66,0 28637.56,7552.83 36314.16,15271.88 21200.02,21317.98 20922.53,53447.99 -226.54,74664.54 -9263.31,9292.8 -27955.25,18170.93 -44512.22,13968.02 -2428.99,-617.08 -5323.13,-1916.02 -7412.97,-2089.84 4444.21,8399.13 9976.45,18585.15 12722.69,28002.61 1552.3,5323.57 1264.09,3707.38 12656.56,2807.01 8441.13,-667.12 15874.21,-3367.34 23433.29,-6432.17 2271.25,-921.37 4379.86,-2061.69 6585.88,-3369.57 2248.02,-1332.9 4162.25,-2323.98 6211.43,-3743.57 8813.79,-6108.21 14041.3,-11721.78 20295.63,-19977.48 2236.85,-2952.68 6080.51,-9443.83 7499.65,-12863 7317.35,-17628.03 9798.17,-33949.07 5083.63,-53120.46 -3058.58,-12435.38 -10609.17,-26902.06 -19705.81,-35952.67 -4798.99,-4774.86 -8009.94,-7648 -13691.43,-11648.95 -1711.82,-1205.56 -4199.34,-2651.51 -6193.11,-3761.89 -11362.53,-6326.27 -25783.19,-10262.43 -40870.52,-10262.43 -1160.43,2417.82 -1901.72,5556.82 -2976.81,8336.13 -4364.22,11281.21 -4833.4,11588.63 -11051.09,23339.46zm-163353.85 145707.5c0,10041.24 -626.01,8749 1535.32,18827.78 1457.57,6799.02 2158.65,8849.54 4857.53,15505.12 15996.64,39447.36 64688.09,60941.39 107633.26,41683.31 4489.34,-2012.99 8859.37,-4737.78 12859.87,-7502.34 4358.41,-3012.55 7585,-5924.57 11240.99,-9574.3 10646.26,-10629.72 17969.41,-24611.59 21348.37,-39740.03 1520.57,-6809.74 1615.75,-10997.47 1615.75,-19199.54 -10910.33,-2542.04 -21535.59,-8449.18 -31222.49,-13575.25 455.77,5477.29 5849.05,11114.09 1546.49,27792.15 -959.35,3719.89 -1917.81,6635.92 -3425.87,9696.73 -3054.11,6197.13 -5796.77,10234.72 -10677.53,15115.48 -20308.14,20308.14 -53238.43,20357.74 -73306.17,226.54 -12505.98,-12546.19 -19989.99,-32313.21 -13810.28,-49333.1 507.16,-1395.91 886.07,-1796.27 1027.27,-3497.81 -9186.45,4861.55 -19983.29,10956.81 -31222.49,13575.25zm0 -192768.46c10910.33,2542.04 21535.59,8449.62 31222.49,13575.25 -339.15,-4078.7 -6070.23,-12145.83 -1458.02,-28156.32 2353.92,-8171.69 3417.38,-10479.59 7970.62,-17369.31 8702.98,-13168.63 25035.19,-22350.17 43715.51,-22350.17 15398.78,0 28064.72,7475.53 35861.07,15271.88 10777.62,10777.62 15724.52,23675.47 15724.52,39028.68 0,1773.48 -197.5,2063.03 -541.56,3531.33l-2626.04 10043.92c2441.05,-1291.8 4528.66,-2391.01 7091.25,-3769.04l7534.51 -3777.53c2788.24,-1403.95 13473.82,-5768.62 16596.74,-6028.68 0,-16287.08 -2187.7,-26668.81 -9496.55,-40731.56l-8074.73 -12287.92c-2471.44,-3116.22 -9736.5,-10329 -12737.44,-12602.94 -15569.91,-11796.85 -30092.45,-17638.75 -52046.72,-17638.75 -22317.99,0 -41444.7,10080.56 -56223.72,24773.79 -956.67,951.31 -1556.77,1462.93 -2410.67,2567.06l-6528.24 8404.94c-4546.08,6874.98 -7316.9,12710.18 -9897.36,20420.29 -3080.92,9205.66 -3675.65,16570.82 -3675.65,27095.09zm-19005.17 129417.74l4072.44 0c7600.19,0 21427.9,-9816.04 26141.55,-13679.36l8044.79 -6887.49c1140.32,-953.54 1571.96,-1379.82 2581.36,-2396.37l5161.37 -4793.63c871.33,-871.33 1248.45,-1643.9 2297.62,-2680.55 991.08,-978.57 1651.05,-1505.83 2381.18,-2595.66 -1664.45,-2486.18 -7547.47,-7765.97 -10068.05,-10295.04 -1861.51,-1867.76 -3345.89,-2952.68 -5198.46,-4756.1 -6564.88,-6391.51 -23948.04,-18434.56 -33151.47,-18434.56 -4178.34,0 -10234.72,1573.3 -13389.37,2900.4 -4966.11,2089.39 -11019.81,6739.14 -13857.65,11030.09 -4273.07,6462.11 -5500.52,9513.53 -6520.64,18397.03 -201.08,1751.59 452.2,5253.87 698.4,7076.95 1350.33,10006.39 8766.87,18938.59 17532.85,23645.09 3509.43,1884.3 8922.37,3469.22 13274.08,3469.22zm66517.87 -133942.82c0,8618.97 359.7,11136.43 5444.67,19896.16 3831.6,6599.28 12360.76,17187.45 17520.79,22299.23 2804.77,2778.86 6153.34,7222.17 10067.61,9843.3 2475.01,-1657.75 5332.51,-4946.45 7347.73,-7132.8 4888.81,-5303.02 6332.97,-6324.04 11799.98,-13087.75 4402.2,-5446.01 13884.91,-18825.54 13884.91,-25935.56 0,-10702.56 -1802.53,-18368.88 -9387.08,-25908.75 -4897.3,-4868.7 -13434.5,-9839.27 -20478.38,-9839.27 -7711.45,0 -10421.5,-188.56 -17956.9,3310.14 -9357.14,4344.12 -18243.32,16611.48 -18243.32,26555.32zm0 195936.06c0,8740.06 612.16,14592.24 6262.37,22245.61 5017.05,6795.89 14735.23,13502.86 24508.37,13502.86 10922.85,0 18152.61,-2085.37 25681.31,-9614.07 7838.35,-7838.8 9613.62,-15103.42 9613.62,-26134.4 0,-3751.61 -3630.52,-10842.42 -5511.69,-13946.12 -1345.42,-2218.08 -2467.86,-3923.65 -3895.94,-6059.06l-8798.6 -11111.41c-3983.97,-3978.61 -10685.13,-12266.03 -14826.38,-15039.08 -5979.08,4004.08 -22334.53,23206.3 -27412.79,31865.93 -1676.07,2859.29 -5620.27,10385.75 -5620.27,14289.74zm81903.25 -95026.3c2922.74,4364.67 15524.34,15292.88 20466.76,19353.7 4845.46,3981.29 18271.92,13679.36 26141.1,13679.36 10909.44,0 18178.08,-2154.63 25908.3,-9839.72 9666.8,-9609.6 12273.18,-25994.99 6233.33,-37687.28 -2848.12,-5513.03 -6252.99,-9516.21 -11407.21,-13028.33 -7685.98,-5237.78 -17703.1,-7528.7 -26684.01,-4221.24 -2695.75,993.31 -4646.62,2038.9 -7033.61,3374.49 -4770.39,2668.49 -11084.6,7046.12 -15172.68,10619.89l-18451.99 17749.12zm-33937.45 34390.1c1336.48,1824.87 19387.66,16126.67 20814.85,17195.5 2387.88,1789.57 4816.42,3714.53 7241.38,5429.03 6472.38,4575.58 25444.49,16892.1 32579.08,18553.87 -2559.46,-10985.85 -20747.37,-35800.3 -29354.28,-46666.85l-8656.06 -10349.11c-943.27,-1224.32 -2266.34,-1939.26 -2714.96,-3620.25 -1935.24,516.99 -3686.38,3007.64 -5090.77,4412.03 -3111.75,3112.2 -13477.84,13042.62 -14819.23,15045.78zm0 -68781.09c836.92,1250.24 17878.7,18915.36 19910.01,19457.81 294.46,-1103.23 10332.58,-12663.71 11371.91,-13968.02 6584.09,-8264.19 13004.64,-16795.13 18586.49,-25759.06 920.92,-1479.02 1341.39,-2457.14 2353.92,-3981.29 916.9,-1379.38 1491.53,-2536.67 2297.17,-4038.03l4299.88 -8370.09c521.45,-1169.81 1539.79,-3334.27 1815.93,-4519.72 -8638.19,2012.54 -36963.86,20739.78 -46709.74,29311.39 -2283.32,2008.52 -12847.36,10395.14 -13925.57,11867.01zm-90501.22 109959.48c6336.55,-1476.34 25758.17,-13558.72 32255.57,-18425.18l28380.19 -22753.21c-1318.16,-1968.3 -11542.6,-11768.7 -14593.14,-14819.23 -1443.72,-1443.72 -3340.97,-4110.87 -5317.32,-4638.58 -459.79,1723.44 -1674.29,2173.85 -2781.99,3553.22 -10797.29,13447.46 -13063.18,15465.36 -23402.01,30445.9 -4353.5,6308.4 -13210.19,20923.87 -14541.3,26637.09zm41177.94 -90501.66c2390.11,-1600.56 7421.01,-7194.47 9842.4,-9615.41 1848.1,-1849 9106.91,-8391.09 9615.41,-10295.04 -1038.89,-277.04 -18877.38,-15291.09 -21074.01,-16936.33l-14802.7 -10537.68c-4758.33,-3362.87 -20002.5,-12143.6 -24759.05,-13251.74 925.39,3971.9 6228.41,13351.39 8400.02,16940.8 3311.04,5471.03 6381.23,10182.44 9967.96,15372.41l22809.96 28322.99zm15385.37 14027.89c0,19165.58 20858.19,25475.32 32252,14604.75 11496.58,-10968.42 5343.68,-32705.09 -14152.11,-32705.09 -9313.35,0 -18099.89,8784.75 -18099.89,18100.33z"/>
 </g>
</svg>
