<?xml version="1.0" encoding="UTF-8"?>
<!DOCTYPE svg PUBLIC "-//W3C//DTD SVG 1.1//EN" "http://www.w3.org/Graphics/SVG/1.1/DTD/svg11.dtd">
<!-- Creator: CorelDRAW 2019 (64-Bit Evaluation Version) -->
<svg xmlns="http://www.w3.org/2000/svg" xml:space="preserve" width="345.32mm" height="80.3894mm" version="1.1" style="shape-rendering:geometricPrecision; text-rendering:geometricPrecision; image-rendering:optimizeQuality; fill-rule:evenodd; clip-rule:evenodd"
viewBox="0 0 22584.52 5257.61"
 xmlns:xlink="http://www.w3.org/1999/xlink"
 xmlns:xodm="http://www.corel.com/coreldraw/odm/2003">
 <defs>
  <style type="text/css">
   <![CDATA[
    .fil1 {fill:url(#id0)}
    .fil0 {fill:url(#id1)}
   ]]>
  </style>
  <linearGradient id="id0" gradientUnits="userSpaceOnUse" x1="19889.76" y1="1270.55" x2="19911.14" y2="5104.49">
   <stop offset="0" style="stop-opacity:1; stop-color:#393185"/>
   <stop offset="1" style="stop-opacity:1; stop-color:#00A0E3"/>
  </linearGradient>
  <linearGradient id="id1" gradientUnits="userSpaceOnUse" xlink:href="#id0" x1="7996.33" y1="2368.18" x2="7998.88" y2="4705.08">
  </linearGradient>
 </defs>
 <g id="Layer_x0020_1">
  <metadata id="CorelCorpID_0Corel-Layer"/>
  <path class="fil0" d="M738.53 3198.21c0,261.03 76.4,480.33 229.21,656.47 152.8,176.15 340.97,264.58 564.51,264.58 224.96,0 413.83,-87.72 565.93,-263.16 152.09,-176.15 227.78,-395.45 227.78,-657.89 0,-263.86 -75.7,-484.57 -227.78,-660.72 -152.1,-176.15 -340.97,-264.57 -565.93,-264.57 -223.54,0 -411.71,88.42 -564.51,264.57 -152.8,176.14 -229.21,396.85 -229.21,660.72zm-738.53 0c0,-222.83 38.19,-430.81 115.3,-624.64 76.4,-194.54 189.59,-367.85 338.85,-521.37 140.77,-146.42 304.9,-258.91 491.65,-336.72 186.04,-78.52 382,-117.44 586.44,-117.44 204.44,0 400.4,39.62 587.86,118.14 187.47,78.53 353.71,192.42 498.72,340.27 146.44,147.85 257.51,318.33 332.48,512.87 75.7,193.84 113.18,403.94 113.18,628.89 0,188.17 -26.17,365.03 -78.52,530.56 -53.05,165.53 -130.87,316.92 -234.86,454.16 -146.43,194.54 -326.11,345.92 -539.75,453.45 -213.64,108.23 -440.02,161.99 -679.12,161.99 -203.03,0 -397.56,-39.61 -583.61,-118.14 -186.05,-78.52 -350.87,-192.41 -494.48,-340.26 -149.26,-152.81 -262.45,-326.11 -338.85,-519.25 -77.11,-192.41 -115.3,-400.38 -115.3,-622.51zm4378.86 -955l-118.13 0 0 831.91 151.38 0c181.1,0 319.05,-36.78 414.54,-109.64 95.5,-72.87 142.9,-178.28 142.9,-314.8 0,-143.61 -45.98,-246.89 -138.66,-311.27 -92.67,-64.37 -243.35,-96.21 -452.04,-96.21zm-814.23 2457.54l0 -3005.07 772.5 0c247.59,0 439.3,16.27 575.82,48.81 136.53,32.54 256.79,86.3 362.2,162.71 111.78,79.93 198.78,178.97 260.33,297.11 61.55,118.13 91.97,242.63 91.97,373.5 0,189.59 -48.1,355.13 -144.31,497.31 -96.21,142.19 -234.86,253.26 -415.96,333.9l916.8 1291.74 -819.18 0 -802.21 -1179.97 -101.86 0 0 1179.97 -696.1 0zm4924.28 -2054.32c-130.17,-133.69 -261.74,-232.73 -394.74,-297.82 -133.69,-64.37 -273.77,-96.91 -420.2,-96.91 -253.96,0 -461.94,87.72 -623.23,263.16 -162,175.43 -242.64,401.1 -242.64,675.57 0,275.18 79.93,498.01 240.52,668.5 159.88,170.48 368.56,256.08 626.06,256.08 152.09,0 303.48,-31.84 454.86,-95.5 151.39,-63.66 302.06,-159.17 452.75,-286.51l-45.99 797.97c-128.74,87.01 -268.81,153.5 -421.61,198.78 -152.8,45.99 -311.26,68.62 -476.09,68.62 -176.85,0 -345.93,-27.59 -508.62,-82.76 -162.01,-55.19 -311.97,-137.25 -448.51,-244.77 -193.83,-152.1 -341.68,-337.44 -444.95,-556.73 -102.58,-218.59 -154.22,-457.69 -154.22,-715.9 0,-222.83 38.19,-431.52 113.89,-626.05 76.4,-194.54 186.75,-367.15 331.78,-516.41 146.43,-149.26 315.5,-263.16 507.92,-343.09 191.71,-79.23 394.03,-118.85 606.95,-118.85 169.08,0 329.66,23.35 483.16,70.74 153.51,46.69 299.95,118.14 439.31,213.63l-76.4 768.25zm559.56 2054.32l0 -3005.07 708.82 0 0 1103.56 1158.74 0 0 -1103.56 704.57 0 0 3005.07 -704.57 0 0 -1260.61 -1158.74 0 0 1260.61 -708.82 0zm3272.48 0l0 -3005.07 717.31 0 0 3005.07 -717.31 0zm2126.47 -645.16l157.75 0c313.39,0 558.86,-75.69 735.71,-227.79 176.86,-152.09 265.28,-361.48 265.28,-629.59 0,-268.1 -88.42,-478.2 -265.28,-631.72 -176.85,-153.5 -422.33,-229.91 -735.71,-229.91l-157.75 0 0 1719zm-708.82 645.16l0 -3005.07 797.95 0c560.99,0 1000.99,133.7 1318.62,401.81 317.62,268.1 476.8,635.25 476.8,1100.73 0,278.72 -62.97,527.03 -188.88,742.78 -125.21,216.47 -309.84,394.03 -553.19,534.09 -138.65,79.93 -288.62,137.24 -451.33,172.61 -161.99,35.38 -362.89,53.06 -602.01,53.06l-797.95 0z"/>
  <path class="fil1" d="M17324.84 2596.31c0,466.8 215.45,837.29 602.36,1060.06 30.25,17.42 59.48,34.75 95.85,49.86 97.89,40.65 230.93,88.9 341.37,95.77 242.09,15.03 140.95,58.63 234.79,-163.11 48.81,-115.36 86.89,-181.51 142.98,-287.52 -44.16,3.68 -118.68,46.36 -218.57,46.36 -226.67,0 -424.25,-102.35 -538.14,-216.91 -168.57,-169.57 -236.77,-339.23 -236.77,-584.51 0,-194.66 106.12,-387.21 233.46,-514.96 139.46,-139.91 429.87,-269.69 651.88,-204.82 29.9,8.74 82.94,30.4 108.13,30.96 -56.31,-106.42 -121.56,-220.54 -161.52,-335.22 -14.26,-40.93 -27.33,-94.07 -43.8,-128.4 -200.64,0 -349.27,41.71 -491.14,98.33 -408.04,162.82 -720.9,610.43 -720.9,1054.12zm3841.44 -688.82c50.78,-1.13 95.93,-46.36 231.81,-46.36 222.94,0 419.16,110.55 531.52,223.53 310.3,312.03 306.24,782.3 -3.32,1092.84 -135.58,136.02 -409.17,265.96 -651.51,204.45 -35.55,-9.03 -77.91,-28.04 -108.5,-30.59 65.05,122.94 146.02,272.03 186.22,409.87 22.72,77.92 18.5,54.26 185.25,41.09 123.55,-9.76 232.35,-49.29 342.99,-94.15 33.24,-13.49 64.11,-30.18 96.4,-49.32 32.9,-19.51 60.92,-34.02 90.92,-54.79 129.01,-89.4 205.52,-171.57 297.06,-292.4 32.74,-43.22 89,-138.23 109.77,-188.27 107.1,-258.02 143.41,-496.9 74.41,-777.51 -44.77,-182.01 -155.28,-393.76 -288.43,-526.23 -70.24,-69.89 -117.24,-111.94 -200.4,-170.5 -25.06,-17.65 -61.46,-38.81 -90.65,-55.06 -166.31,-92.6 -377.38,-150.21 -598.21,-150.21 -16.98,35.39 -27.84,81.33 -43.57,122.01 -63.88,165.12 -70.75,169.62 -161.75,341.61zm-2390.97 2132.68c0,146.97 -9.16,128.06 22.47,275.58 21.33,99.52 31.6,129.53 71.1,226.94 234.14,577.38 946.82,891.98 1575.4,610.11 65.71,-29.46 129.67,-69.35 188.23,-109.81 63.79,-44.09 111.02,-86.72 164.53,-140.14 155.83,-155.58 263.01,-360.23 312.47,-581.66 22.26,-99.67 23.65,-160.97 23.65,-281.02 -159.69,-37.21 -315.21,-123.67 -456.99,-198.7 6.67,80.17 85.61,162.67 22.64,406.79 -14.04,54.45 -28.07,97.13 -50.14,141.93 -44.7,90.71 -84.85,149.8 -156.28,221.24 -297.24,297.24 -779.24,297.97 -1072.96,3.32 -183.05,-183.64 -292.59,-472.96 -202.14,-722.07 7.42,-20.43 12.97,-26.29 15.04,-51.2 -134.46,71.16 -292.49,160.37 -456.99,198.7zm0 -2821.5c159.69,37.21 315.21,123.67 456.99,198.7 -4.96,-59.7 -88.85,-177.78 -21.34,-412.12 34.45,-119.61 50.02,-153.39 116.66,-254.23 127.38,-192.75 366.43,-327.13 639.85,-327.13 225.39,0 410.78,109.42 524.89,223.53 157.75,157.75 230.16,346.53 230.16,571.25 0,25.96 -2.89,30.2 -7.93,51.69l-38.44 147.01c35.73,-18.91 66.28,-35 103.79,-55.17l110.28 -55.29c40.81,-20.55 197.21,-84.43 242.92,-88.24 0,-238.39 -32.02,-390.34 -139,-596.18l-118.19 -179.85c-36.17,-45.61 -142.51,-151.18 -186.43,-184.47 -227.89,-172.67 -440.45,-258.17 -761.79,-258.17 -326.66,0 -606.61,147.55 -822.93,362.61 -14,13.92 -22.79,21.41 -35.28,37.57l-95.55 123.02c-66.54,100.63 -107.1,186.04 -144.86,298.89 -45.09,134.74 -53.8,242.54 -53.8,396.58zm-278.17 1894.25l59.61 0c111.24,0 313.63,-143.67 382.63,-200.22l117.75 -100.81c16.69,-13.96 23.01,-20.2 37.78,-35.07l75.55 -70.16c12.75,-12.75 18.27,-24.06 33.63,-39.23 14.51,-14.32 24.17,-22.04 34.85,-37.99 -24.36,-36.39 -110.47,-113.67 -147.36,-150.69 -27.25,-27.34 -48.97,-43.22 -76.09,-69.61 -96.09,-93.55 -350.52,-269.82 -485.23,-269.82 -61.16,0 -149.8,23.03 -195.98,42.45 -72.69,30.58 -161.29,98.64 -202.83,161.44 -62.54,94.58 -80.51,139.25 -95.44,269.27 -2.94,25.64 6.62,76.9 10.22,103.58 19.76,146.46 128.32,277.2 256.62,346.09 51.37,27.58 130.59,50.78 194.29,50.78zm973.6 -1960.48c0,126.15 5.26,163 79.69,291.21 56.08,96.59 180.92,251.57 256.45,326.39 41.05,40.67 90.06,105.71 147.36,144.07 36.23,-24.26 78.05,-72.4 107.55,-104.4 71.56,-77.62 92.69,-92.56 172.71,-191.56 64.43,-79.71 203.23,-275.54 203.23,-379.61 0,-156.65 -26.38,-268.86 -137.4,-379.22 -71.68,-71.26 -196.64,-144.01 -299.74,-144.01 -112.87,0 -152.54,-2.76 -262.83,48.45 -136.96,63.58 -267.02,243.14 -267.02,388.68zm0 2867.86c0,127.93 8.96,213.58 91.66,325.6 73.43,99.47 215.68,197.64 358.72,197.64 159.87,0 265.69,-30.52 375.89,-140.72 114.73,-114.73 140.71,-221.06 140.71,-382.52 0,-54.91 -53.14,-158.7 -80.67,-204.13 -19.69,-32.47 -36.12,-57.43 -57.02,-88.68l-128.78 -162.63c-58.31,-58.23 -156.4,-179.53 -217.01,-220.12 -87.51,58.61 -326.9,339.66 -401.23,466.41 -24.53,41.85 -82.26,152.01 -82.26,209.15zm1198.8 -1390.87c42.78,63.88 227.23,223.84 299.57,283.27 70.92,58.27 267.44,200.22 382.62,200.22 159.68,0 266.07,-31.54 379.21,-144.02 141.49,-140.65 179.64,-380.48 91.24,-551.62 -41.69,-80.69 -91.52,-139.29 -166.96,-190.69 -112.5,-76.66 -259.12,-110.2 -390.57,-61.79 -39.46,14.54 -68.01,29.84 -102.95,49.39 -69.82,39.06 -162.24,103.13 -222.08,155.44l-270.08 259.79zm-496.73 503.36c19.56,26.71 283.77,236.04 304.66,251.69 34.95,26.19 70.5,54.37 105.99,79.46 94.73,66.97 372.42,247.24 476.85,271.57 -37.46,-160.8 -303.67,-524 -429.65,-683.05l-126.7 -151.48c-13.81,-17.92 -33.17,-28.38 -39.74,-52.99 -28.33,7.57 -53.96,44.02 -74.51,64.58 -45.55,45.55 -197.27,190.9 -216.91,220.22zm0 -1006.73c12.25,18.3 261.69,276.86 291.42,284.8 4.31,-16.15 151.24,-185.36 166.45,-204.45 96.37,-120.96 190.35,-245.83 272.05,-377.03 13.48,-21.65 19.63,-35.96 34.45,-58.27 13.42,-20.19 21.83,-37.13 33.62,-59.1l62.94 -122.51c7.63,-17.12 22.54,-48.8 26.58,-66.15 -126.43,29.46 -541.03,303.56 -683.68,429.02 -33.42,29.4 -188.04,152.15 -203.82,173.69zm-1324.64 1609.45c92.75,-21.61 377.02,-198.46 472.12,-269.68l415.39 -333.03c-19.29,-28.81 -168.95,-172.26 -213.6,-216.91 -21.13,-21.13 -48.9,-60.17 -77.83,-67.89 -6.73,25.23 -24.51,31.82 -40.72,52.01 -158.04,196.83 -191.2,226.36 -342.53,445.63 -63.72,92.33 -193.35,306.26 -212.84,389.88zm602.71 -1324.65c34.98,-23.43 108.62,-105.3 144.06,-140.74 27.05,-27.06 133.3,-122.82 140.74,-150.69 -15.21,-4.05 -276.3,-223.81 -308.45,-247.89l-216.66 -154.24c-69.65,-49.22 -292.77,-177.74 -362.39,-193.96 13.54,58.14 91.16,195.42 122.95,247.96 48.46,80.08 93.4,149.04 145.9,225l333.86 414.56zm225.19 205.32c0,280.52 305.3,372.88 472.06,213.77 168.27,-160.54 78.21,-478.7 -207.14,-478.7 -136.32,0 -264.92,128.58 -264.92,264.93z"/>
 </g>
</svg>
