<?xml version="1.0" encoding="UTF-8"?>
<!DOCTYPE svg PUBLIC "-//W3C//DTD SVG 1.1//EN" "http://www.w3.org/Graphics/SVG/1.1/DTD/svg11.dtd">
<!-- Creator: CorelDRAW 2019 (64-Bit Evaluation Version) -->
<svg xmlns="http://www.w3.org/2000/svg" xml:space="preserve" width="249.718mm" height="48.9981mm" version="1.1" style="shape-rendering:geometricPrecision; text-rendering:geometricPrecision; image-rendering:optimizeQuality; fill-rule:evenodd; clip-rule:evenodd"
viewBox="0 0 11810.45 2317.38"
 xmlns:xlink="http://www.w3.org/1999/xlink"
 xmlns:xodm="http://www.corel.com/coreldraw/odm/2003">
 <defs>
  <style type="text/css">
   <![CDATA[
    .fil0 {fill:url(#id0)}
   ]]>
  </style>
  <linearGradient id="id0" gradientUnits="userSpaceOnUse" x1="5782.54" y1="559.99" x2="5784.38" y2="2249.91">
   <stop offset="0" style="stop-opacity:1; stop-color:#393185"/>
   <stop offset="1" style="stop-opacity:1; stop-color:#00A0E3"/>
  </linearGradient>
 </defs>
 <g id="Layer_x0020_1">
  <metadata id="CorelCorpID_0Corel-Layer"/>
  <path class="fil0" d="M534.07 1160.22c0,188.76 55.25,347.35 165.75,474.73 110.5,127.38 246.57,191.33 408.22,191.33 162.68,0 299.26,-63.43 409.26,-190.31 109.98,-127.38 164.72,-285.97 164.72,-475.75 0,-190.81 -54.74,-350.42 -164.72,-477.8 -109.99,-127.38 -246.57,-191.32 -409.26,-191.32 -161.66,0 -297.73,63.94 -408.22,191.32 -110.5,127.38 -165.75,286.98 -165.75,477.8zm-534.07 0c0,-161.14 27.62,-311.54 83.38,-451.71 55.25,-140.68 137.1,-266.01 245.04,-377.03 101.8,-105.88 220.49,-187.23 355.54,-243.5 134.54,-56.78 276.24,-84.92 424.08,-84.92 147.84,0 289.55,28.65 425.11,85.43 135.57,56.79 255.79,139.15 360.65,246.06 105.9,106.92 186.22,230.2 240.43,370.88 54.74,140.17 81.85,292.11 81.85,454.78 0,136.08 -18.93,263.97 -56.78,383.67 -38.37,119.7 -94.64,229.18 -169.84,328.42 -105.89,140.68 -235.83,250.15 -390.32,327.91 -154.49,78.27 -318.2,117.15 -491.1,117.15 -146.82,0 -287.49,-28.64 -422.04,-85.43 -134.54,-56.78 -253.73,-139.14 -357.58,-246.06 -107.94,-110.51 -189.79,-235.83 -245.04,-375.5 -55.76,-139.14 -83.38,-289.54 -83.38,-450.17zm3166.57 -690.61l-85.42 0 0 601.6 109.47 0c130.97,0 230.72,-26.6 299.78,-79.29 69.06,-52.7 103.34,-128.92 103.34,-227.65 0,-103.85 -33.25,-178.53 -100.27,-225.09 -67.02,-46.55 -175.98,-69.57 -326.89,-69.57zm-588.81 1777.17l0 -2173.12 558.63 0c179.05,0 317.68,11.76 416.41,35.3 98.73,23.53 185.7,62.41 261.92,117.66 80.83,57.8 143.74,129.42 188.25,214.86 44.51,85.42 66.51,175.46 66.51,270.1 0,137.1 -34.79,256.81 -104.36,359.63 -69.57,102.82 -169.84,183.14 -300.8,241.46l662.98 934.12 -592.39 0 -580.11 -853.29 -73.66 0 0 853.29 -503.38 0zm3560.99 -1485.58c-94.13,-96.68 -189.28,-168.3 -285.46,-215.37 -96.68,-46.55 -197.97,-70.08 -303.87,-70.08 -183.65,0 -334.05,63.43 -450.69,190.3 -117.15,126.86 -175.47,290.06 -175.47,488.54 0,199 57.8,360.14 173.93,483.43 115.62,123.28 266.52,185.18 452.73,185.18 109.99,0 219.46,-23.02 328.93,-69.06 109.47,-46.04 218.44,-115.1 327.41,-207.19l-33.26 577.05c-93.1,62.92 -194.39,111.01 -304.89,143.74 -110.5,33.26 -225.09,49.62 -344.28,49.62 -127.89,0 -250.16,-19.95 -367.81,-59.85 -117.16,-39.91 -225.6,-99.25 -324.34,-177 -140.17,-109.99 -247.08,-244.02 -321.77,-402.6 -74.18,-158.07 -111.52,-330.98 -111.52,-517.7 0,-161.14 27.62,-312.05 82.36,-452.73 55.25,-140.68 135.05,-265.5 239.92,-373.44 105.89,-107.94 228.16,-190.3 367.3,-248.11 138.64,-57.29 284.94,-85.94 438.92,-85.94 122.27,0 238.39,16.88 349.4,51.15 111.01,33.76 216.91,85.43 317.69,154.49l-55.25 555.56zm404.64 1485.58l0 -2173.12 512.59 0 0 798.04 837.94 0 0 -798.04 509.51 0 0 2173.12 -509.51 0 0 -911.61 -837.94 0 0 911.61 -512.59 0zm2366.49 0l0 -2173.12 518.72 0 0 2173.12 -518.72 0zm1537.76 -466.55l114.08 0c226.62,0 404.14,-54.73 532.03,-164.72 127.9,-109.98 191.84,-261.41 191.84,-455.29 0,-193.88 -63.94,-345.81 -191.84,-456.82 -127.89,-111.01 -305.4,-166.26 -532.03,-166.26l-114.08 0 0 1243.09zm-512.59 466.55l0 -2173.12 577.04 0c405.68,0 723.87,96.69 953.56,290.57 229.69,193.88 344.8,459.38 344.8,795.99 0,201.55 -45.54,381.12 -136.59,537.14 -90.55,156.54 -224.06,284.94 -400.04,386.23 -100.27,57.8 -208.72,99.24 -326.38,124.82 -117.15,25.58 -262.43,38.37 -435.34,38.37l-577.04 0z"/>
 </g>
</svg>
